<svg xmlns="http://www.w3.org/2000/svg" width="263.852" height="90.101" viewBox="0 0 263.852 90.101">
  <g id="Group_32" data-name="Group 32" transform="translate(-632.121 -1204.627)">
    <path id="Path_4" data-name="Path 4" d="M83.928-583.461H91.42a16.116,16.116,0,0,1,8.456,2.024,12.262,12.262,0,0,1,4.881,5.221,15.433,15.433,0,0,1,1.532,6.754,13.228,13.228,0,0,1-1.854,7.019,12.657,12.657,0,0,1-4.957,4.692,14.151,14.151,0,0,1-6.735,1.646H83.928Zm8.1,23.8a11.937,11.937,0,0,0,5.411-1.192,8.824,8.824,0,0,0,3.727-3.462,10.437,10.437,0,0,0,1.343-5.411,10.452,10.452,0,0,0-1.4-5.524,9.205,9.205,0,0,0-3.727-3.5,10.839,10.839,0,0,0-5.013-1.192H87.6v20.28Zm34.128-12.108v15.664h-3.178l-.227-2.989a6.292,6.292,0,0,1-2.459,2.592,7.049,7.049,0,0,1-3.708,1,4.942,4.942,0,0,1-3.538-1.305,4.7,4.7,0,0,1-1.457-3.386V-571.77h3.519v10.329a3.314,3.314,0,0,0,.776,2.1,2.794,2.794,0,0,0,2.1.813,3.88,3.88,0,0,0,2.346-.776,5.335,5.335,0,0,0,1.684-2.138,7.18,7.18,0,0,0,.624-3.027v-7.3Zm10.556,16a9.123,9.123,0,0,1-3.311-.605,6.142,6.142,0,0,1-2.554-1.778l1.513-2.043a7.524,7.524,0,0,0,1.986,1.4,4.794,4.794,0,0,0,2.062.492,3.829,3.829,0,0,0,2.043-.492,1.656,1.656,0,0,0,.795-1.513,1.739,1.739,0,0,0-.492-1.286,3.031,3.031,0,0,0-1.116-.719q-.624-.227-2.1-.681-4.011-1.286-4.011-4.578a4.5,4.5,0,0,1,1.457-3.368,5.63,5.63,0,0,1,4.067-1.4,9.584,9.584,0,0,1,2.951.416,7.19,7.19,0,0,1,2.384,1.324l-1.4,2.157a4.3,4.3,0,0,0-1.532-1.022,5.305,5.305,0,0,0-1.759-.416,3.17,3.17,0,0,0-1.816.511,1.587,1.587,0,0,0-.757,1.381,1.584,1.584,0,0,0,.492,1.192,3.149,3.149,0,0,0,1.022.681q.53.208,2.081.7a7.992,7.992,0,0,1,3.008,1.665,3.624,3.624,0,0,1,1.078,2.762,4.889,4.889,0,0,1-1.589,3.746A6.371,6.371,0,0,1,136.71-555.765Zm6.811-24.707L137.277-574h-.038l-6.356-6.47h3.292l3.14,3.254,2.951-3.254Zm20.28,8.7v15.664h-3.519v-2.573a8.118,8.118,0,0,1-2.422,2.024,7,7,0,0,1-3.594.927,8.382,8.382,0,0,1-4.03-.965,7.016,7.016,0,0,1-2.838-2.819,8.908,8.908,0,0,1-1.041-4.427,8.972,8.972,0,0,1,1.078-4.484,7.621,7.621,0,0,1,2.913-2.951,8.1,8.1,0,0,1,4.067-1.04,6.728,6.728,0,0,1,3.481.87,7.085,7.085,0,0,1,2.384,2.27l.265-2.5Zm-8.589,13.129a5.218,5.218,0,0,0,3.311-1.078,4.8,4.8,0,0,0,1.759-2.932v-3.1a4.827,4.827,0,0,0-1.892-2.705A5.471,5.471,0,0,0,155.1-569.5a5.134,5.134,0,0,0-2.592.681,5,5,0,0,0-1.892,1.911,5.52,5.52,0,0,0-.7,2.781,5.437,5.437,0,0,0,.719,2.762,5.5,5.5,0,0,0,1.93,1.986A4.994,4.994,0,0,0,155.211-558.64Zm24.442-13.735a5.2,5.2,0,0,1,3.632,1.305,4.48,4.48,0,0,1,1.476,3.386v11.578H181.2v-10.367a3.176,3.176,0,0,0-.795-2.081,2.954,2.954,0,0,0-2.157-.794,4.262,4.262,0,0,0-3.443,1.665,6.473,6.473,0,0,0-1.362,4.238v7.34H169.93V-571.77h3.178l.227,3.027a6.143,6.143,0,0,1,2.5-2.668A7.482,7.482,0,0,1,179.654-572.375Zm-68.521,27.708v28.226H107.5v-17.707L97.436-519.884H97.36l-9.875-13.772v17.215H83.928v-28.226h.038l13.47,19.07,13.659-19.07Zm23.08,12.562v15.664h-3.519v-2.573a8.116,8.116,0,0,1-2.422,2.024,7,7,0,0,1-3.594.927,8.382,8.382,0,0,1-4.03-.965,7.016,7.016,0,0,1-2.838-2.819,8.908,8.908,0,0,1-1.041-4.427,8.972,8.972,0,0,1,1.078-4.484,7.622,7.622,0,0,1,2.913-2.951,8.1,8.1,0,0,1,4.067-1.04,6.728,6.728,0,0,1,3.481.87,7.088,7.088,0,0,1,2.384,2.27l.265-2.5Zm-8.589,13.129a5.218,5.218,0,0,0,3.311-1.078,4.8,4.8,0,0,0,1.759-2.932v-3.1a4.826,4.826,0,0,0-1.892-2.705,5.472,5.472,0,0,0-3.292-1.04,5.135,5.135,0,0,0-2.592.681,5.007,5.007,0,0,0-1.892,1.911,5.521,5.521,0,0,0-.7,2.781,5.436,5.436,0,0,0,.719,2.762,5.5,5.5,0,0,0,1.93,1.986A4.994,4.994,0,0,0,125.624-518.976Zm12.826,7.908a6.715,6.715,0,0,0,2.27-5.411V-532.1h3.557v15.778a10.193,10.193,0,0,1-.889,4.5,6.959,6.959,0,0,1-2.819,2.951Zm2.005-26.675a1.8,1.8,0,0,1,.643-1.4,2.166,2.166,0,0,1,1.476-.567,2.1,2.1,0,0,1,1.457.567,1.818,1.818,0,0,1,.624,1.4,1.818,1.818,0,0,1-.624,1.4,2.1,2.1,0,0,1-1.457.567,2.166,2.166,0,0,1-1.476-.567A1.8,1.8,0,0,1,140.455-537.742Zm22.437,19.826a7.9,7.9,0,0,1-2.516,1.362,9.225,9.225,0,0,1-2.97.492,9.516,9.516,0,0,1-4.484-1.022,7.36,7.36,0,0,1-3.027-2.894,8.528,8.528,0,0,1-1.078-4.332,8.12,8.12,0,0,1,1.135-4.294,7.848,7.848,0,0,1,3.027-2.894,8.466,8.466,0,0,1,4.086-1.022,8.928,8.928,0,0,1,5.94,1.967l-1.778,2.308a7.67,7.67,0,0,0-1.74-.965,5.606,5.606,0,0,0-2.119-.4,4.829,4.829,0,0,0-2.554.7A4.992,4.992,0,0,0,153-527a5.505,5.505,0,0,0-.662,2.686,5.27,5.27,0,0,0,.7,2.686,5.291,5.291,0,0,0,1.911,1.93,5.307,5.307,0,0,0,2.762.719,5.274,5.274,0,0,0,3.367-1.135Zm14.264-14.794a5.2,5.2,0,0,1,3.632,1.305,4.479,4.479,0,0,1,1.476,3.386v11.578h-3.557v-10.367a3.175,3.175,0,0,0-.795-2.081,2.954,2.954,0,0,0-2.157-.795,4.232,4.232,0,0,0-2.459.757,5.065,5.065,0,0,0-1.722,2.119,7.179,7.179,0,0,0-.624,3.027v7.34h-3.519v-29.323h3.443v16.5a6.558,6.558,0,0,1,2.516-2.5A7.419,7.419,0,0,1,177.156-532.71Zm14.6,4.313a6.954,6.954,0,0,1,1.722-2.27,8.735,8.735,0,0,1,2.365-1.513,6.414,6.414,0,0,1,2.194-.568l-.151,3.519a5.758,5.758,0,0,0-3.084.681,5.481,5.481,0,0,0-2.157,2.1,5.622,5.622,0,0,0-.776,2.857v7.151h-3.519V-532.1h3.14Zm26.221-3.708v15.664h-3.519v-2.573a8.116,8.116,0,0,1-2.422,2.024,7,7,0,0,1-3.594.927,8.382,8.382,0,0,1-4.03-.965,7.016,7.016,0,0,1-2.838-2.819,8.908,8.908,0,0,1-1.041-4.427,8.972,8.972,0,0,1,1.078-4.484,7.622,7.622,0,0,1,2.913-2.951,8.1,8.1,0,0,1,4.067-1.04,6.728,6.728,0,0,1,3.481.87,7.089,7.089,0,0,1,2.384,2.27l.265-2.5Zm-8.589,13.129a5.218,5.218,0,0,0,3.311-1.078,4.8,4.8,0,0,0,1.759-2.932v-3.1a4.826,4.826,0,0,0-1.892-2.705,5.472,5.472,0,0,0-3.292-1.04,5.135,5.135,0,0,0-2.592.681,5.007,5.007,0,0,0-1.892,1.911,5.522,5.522,0,0,0-.7,2.781,5.435,5.435,0,0,0,.719,2.762,5.5,5.5,0,0,0,1.93,1.986A4.994,4.994,0,0,0,209.393-518.976Zm2.232-16.08h-2.27l3.14-5.07h3.935Zm18.048,11.086-2.043,1.665v5.865h-3.519v-29.323h3.519v19.788l8.1-6.508,2.157,1.892-5.789,4.654,6.546,9.5h-4.124Z" transform="translate(657.332 1797.251)" fill="#fff"/>
    <g id="Layer_1" data-name="Layer 1" transform="translate(632.121 1204.627)">
      <g id="Group_5" data-name="Group 5" transform="translate(0 0)">
        <path id="Path_5" data-name="Path 5" d="M100.836,241.237a18.456,18.456,0,0,1-2.564-.777c-.526-.265-1.071-.522-1.589-.8a27.12,27.12,0,0,1-4.908-3.475,25.91,25.91,0,0,0-3-2.473,20.9,20.9,0,0,0-2.651-1.226A16.162,16.162,0,0,1,84.5,231.9c-.105-.061-.308-.215-.411-.022s.038.354.2.486a10.726,10.726,0,0,0,1.874.888,2.769,2.769,0,0,0,.3.111c-1.858.285-3.333-.595-4.962-1.071.241.425.31.888.676,1.206a.313.313,0,0,1,.055.465c-.123.105-.281-.053-.4-.152a8.529,8.529,0,0,0-3.07-1.587,5.129,5.129,0,0,1-2.182-1.334,12.1,12.1,0,0,1-2.339-3.4,12.268,12.268,0,0,1-1.311-5.523,10.919,10.919,0,0,1,1.034-4.4,13.279,13.279,0,0,1,3.424-4.481c1.542-1.358,3.264-2.487,4.782-3.876a13.092,13.092,0,0,0,1.819-2.368c.146-.213-.051-.514.188-.729.372.419.069,1,.352,1.473a23.359,23.359,0,0,0,1.4-4.985,30.088,30.088,0,0,1,1.261-4.722,9.87,9.87,0,0,1,1.629-2.833,13.38,13.38,0,0,1,4.572-3.679,6.95,6.95,0,0,1,2.352-.718c-.241-.277-.619-.085-.739-.372,3.863-1.394,7.654-.8,11.432.528-.156.275-.465.291-.718.4-.2.087-.5.085-.467.415.03.308.32.316.526.356a13.111,13.111,0,0,0,2.789.069c1.552-.041,3.1-.213,4.655-.178.21,0,.528-.136.455.344-.028.184.277.243.468.229a13.758,13.758,0,0,1,4.752.615,7.66,7.66,0,0,1,3.082,1.6,12.158,12.158,0,0,1,2.92,4.683c.6,1.419,1.02,2.9,1.6,4.329a8.841,8.841,0,0,0,1.326,2.459,4.075,4.075,0,0,0,1.726,1.451,3.552,3.552,0,0,1-1.342.275c-.15.012-.334-.016-.413.152s.045.277.14.407c.71.967,1.423,1.935,2.113,2.916.559.8,1.111,1.6,1.619,2.429a18.666,18.666,0,0,1,1.965,4.066,16.714,16.714,0,0,1,.708,2.667,19.085,19.085,0,0,1,.083,2.439,12.092,12.092,0,0,1-1.3-1.119.562.562,0,0,0-.024.623c.119.223.235.447.336.678.063.142.111.326,0,.439s-.283.034-.427-.02-.269-.229-.413-.1.018.289.049.431a10.142,10.142,0,0,1-.237,5.28,3.159,3.159,0,0,1-1.483,1.765,10.091,10.091,0,0,1-4,1.37,15.537,15.537,0,0,0-4.41,1.067,10.636,10.636,0,0,0-3.623,2.485,4.339,4.339,0,0,0-.676,1.02,9.74,9.74,0,0,1,.907-5,3.228,3.228,0,0,0-1.366.492c-.967.459-1.872,1.052-2.837,1.522a24.333,24.333,0,0,0-3.22,1.963c-1.008.7-2.02,1.39-3.086,1.993a26.1,26.1,0,0,1-2.987,1.431c-.461.188-.907.415-1.516.7a9.25,9.25,0,0,0,4.2-.605,2.195,2.195,0,0,1-1.265,1.073,16.724,16.724,0,0,1-3.4.812h-2.8ZM85.919,212.258c-.338.376-.631.716-.939,1.04-.557.587-1.324.909-1.886,1.494a16.764,16.764,0,0,0-2.4,3.422,4.636,4.636,0,0,0-.71,1.706,17.032,17.032,0,0,0-.142,4.173,3.979,3.979,0,0,0,1.216,2.69c.249.212.344.217.474-.123.057-.146.032-.577.435-.421a6.788,6.788,0,0,1,1.046.455c.407.245.5.117.457-.289-.055-.468.119-.548.52-.34.842.433,1.785.593,2.647,1,.443.21.886.449,1.348.631a15.854,15.854,0,0,1,2.546,1.394,25.644,25.644,0,0,1,2.625,1.929c1.293,1.056,2.532,2.178,3.809,3.254.613.516,1.257,1,1.89,1.485a4.33,4.33,0,0,0,3.007.571,2.541,2.541,0,0,0,1.269-.148l-1.738-.395c.215-.087.281-.119.352-.142a25.678,25.678,0,0,0,3.608-1.208,26.424,26.424,0,0,0,3.914-2.21c.277-.2.221-.269-.006-.443a10.131,10.131,0,0,1-1-.884,4.3,4.3,0,0,1-1.358-2.6,5.124,5.124,0,0,1,1.528-4.037,13.306,13.306,0,0,1,2.394-1.979,10.22,10.22,0,0,1,3.285-1.534,12.493,12.493,0,0,1,4.048-.64c.109.008.257,0,.3-.128.055-.164-.087-.243-.2-.314-.385-.249-.8-.463-1.156-.747-.407-.322-.959-.476-1.218-1.008a4.841,4.841,0,0,1,1.344-.166c.231-.043.391-.093.164-.36-.536-.633-1.058-1.279-1.613-1.951.6-.32,1.285-.247,1.906-.538-.89-.563-1.763-1.081-2.6-1.651a9.607,9.607,0,0,1-3.841-4.1,5.1,5.1,0,0,1-.215-3.523,6.893,6.893,0,0,0,.318-2.028c0-.33-.016-.664.018-.992.055-.506.136-1.014.767-1.172-.54,2.469-.431,2.955,1.945,5.009-.49.067-.925-.178-1.384-.1-.156.026-.328-.022-.324.212a5.14,5.14,0,0,0,.557,2.671c.862,1.441,2.366,2.028,3.7,2.835.8.484,1.645.882,2.459,1.338.931.522,1.864,1.042,2.773,1.6a5.092,5.092,0,0,1,2.578,3.669l-4.766-1.813a26.878,26.878,0,0,0,2.123,2.143.254.254,0,0,1,.105.184c-.012.136-.14.105-.229.1-.37-.018-.739-.192-1.111-.051-.032.213.15.241.231.326,1.127,1.2,1.912,2.481,1.156,4.2-.109.249-.872.895-1.024.785-.293-.212-.089-.565-.144-.85a.379.379,0,0,1,0-.117c.069-.48-.152-.627-.617-.666a8.438,8.438,0,0,0-4.62.753,2.709,2.709,0,0,0-1.127.759,7.4,7.4,0,0,0-.88,4.005c0,.5.16.514.54.285a17.028,17.028,0,0,1,3.914-1.771,13.15,13.15,0,0,1,3.977-.49c-.561.755-1.05,1.4-1.526,2.062-.107.15-.281.314-.2.516.073.17.273.1.419.1a13.607,13.607,0,0,0,5.051-.769,3.64,3.64,0,0,0,2.443-3.08,12.418,12.418,0,0,0-.47-3.774c-.1-.67-.17-.658.508-.682.069,0,.154.038.2-.075-.168-.465-.7-.686-.858-1.18a2.807,2.807,0,0,1,.391-.136,1.109,1.109,0,0,0,.99-1.5c-.012-.057-.047-.107-.063-.162a12.83,12.83,0,0,0-2.429-4.657,49.259,49.259,0,0,1-3.659-4.558c-.338-.516-.463-1.2-.107-1.338.49-.192.235-.435.144-.678-.067-.18-.206-.334-.259-.514-.332-1.143-.668-2.287-.965-3.44a7.149,7.149,0,0,0-2.682-4.151,3.833,3.833,0,0,0-1.449-.824,8.882,8.882,0,0,0-5.565.49.978.978,0,0,1-.334.073c-.117.008-.255-.01-.18-.188.271-.635-.154-.563-.542-.55-1.534.055-3.064.19-4.6.148a6.389,6.389,0,0,1-3.578-1.127.95.95,0,0,1-.512-.9c.034-.342-.121-.459-.427-.567a5.478,5.478,0,0,0-1.957-.186c-.223,0-.66-.174-.435.387.057.144-.1.17-.217.19a14.312,14.312,0,0,0-5.2,1.607,5.661,5.661,0,0,0-2.228,2.346,22.741,22.741,0,0,0-1.479,3.869c-.4,1.344-.822,2.684-1.241,4.021-.265.844-.565,1.676-.816,2.524a9.949,9.949,0,0,1-1.328,2.777c-.156.231-.344.735-.654.654-.267-.071-.162-.569-.233-.909Z" transform="translate(-58.171 -151.136)" fill="#ffce00"/>
        <path id="Path_6" data-name="Path 6" d="M0,131.851c.488.168.571.676.789,1.036a10.664,10.664,0,0,0,2.307,2.54c.158.132.3.346.514.38a22.219,22.219,0,0,1-2.783-16.65c.613.1.441.749.967.917.036-3.133,1.88-5.033,4.377-6.6,0,.478-.2.84-.107,1.239a1.906,1.906,0,0,0,.941-.174,7.488,7.488,0,0,1,3.289-.777c.237,0,.429.026.287-.336s.083-.435.364-.293c.731.368,1.465.733,2.17,1.147a25.753,25.753,0,0,1,2.594,1.657c.892.684,1.769,1.39,2.615,2.141a24.463,24.463,0,0,1,3.27,3.534,20.839,20.839,0,0,1,2.463,4.169,8.449,8.449,0,0,1,.842,3.455,2.928,2.928,0,0,1-.239,1.413c-.623-.516-.984-1.255-1.633-1.736.263.518.427,1.069.64,1.6a14.157,14.157,0,0,1,1.044,5.885,46.432,46.432,0,0,1-.128,5.064,8.832,8.832,0,0,1-1.135,3.554,2.169,2.169,0,0,1-2.582,1.05c.293-.287.755-.322,1-.767a3.491,3.491,0,0,0-2.281.492,4.891,4.891,0,0,0-2.277,4.665c.1,1.583.152,1.534-1.445,1.437a16.462,16.462,0,0,1-5.185-1.275,19.858,19.858,0,0,1-5.149-2.951,7.161,7.161,0,0,1-1.953-2.536c-.105-.223-.3-.5-.162-.7s.467-.063.708-.04c.684.063,1.366.142,2.048.213l.049-.146-2.465-1.514.012-.083,1.933.407A9.6,9.6,0,0,1,4,141.947a11.021,11.021,0,0,1-2.651-3.287,14.941,14.941,0,0,1-.963-2.526,2.005,2.005,0,0,1,.061-1.872.155.155,0,0,0,.016-.113A9.143,9.143,0,0,0,0,131.97v-.117Zm4.07-8.613c.026,1.89-.032,3.71.158,5.533a8.9,8.9,0,0,0,1.257,3.8,10.036,10.036,0,0,0,1.135,1.5,11.015,11.015,0,0,0,1.52,1.411,16.694,16.694,0,0,0,2,1.362,3.148,3.148,0,0,1-1.2.257c-.992,0-1.981,0-2.973.006-.215,0-.5-.012-.555.2s.2.37.374.463c.6.32.982.9,1.56,1.243a.276.276,0,0,1,.13.352c-.061.125-.206.069-.316.071-.33.006-.66.006-.99,0-.265,0-.425.022-.221.35a5.506,5.506,0,0,0,2.449,2.1c.909.417,1.838.787,2.756,1.178a3.642,3.642,0,0,1-1.168.107c-.486-.022-.512.19-.344.569.38.852.374.854-.569.9a.777.777,0,0,0-.194.075,4.891,4.891,0,0,0,1.1.82,8.439,8.439,0,0,0,3.938,1.633c.253.045.366-.024.415-.257a7.586,7.586,0,0,1,2-3.71,1.2,1.2,0,0,0,.237-.381c.52-1.226.314-2.682,1.368-3.865l-1.413.328a11.132,11.132,0,0,0,.664-2.331,11.185,11.185,0,0,0-.7-7.13,23.585,23.585,0,0,0-2.738-4.908.355.355,0,0,1-.087-.372c.059-.138.2-.077.308-.075.506.006,1.01.034,1.514.024.237,0,.6.134.676-.107.053-.18-.208-.457-.34-.686a.743.743,0,0,0-.166-.162,29.169,29.169,0,0,0-4.475-2.908c-.215-.134-.563-.014-.678-.354.2-.156.38-.024.55.026a12.113,12.113,0,0,1,5.112,2.754,9.7,9.7,0,0,1,2.012,2.425c.077.15.217.32.069.478-.123.132-.291.032-.433-.026-.652-.265-1.358-.237-2.072-.488a35.8,35.8,0,0,1,2.093,3.756,11.011,11.011,0,0,1,1.071,4.7c-.045.988.075,1.985.123,3.058.488-.453.506-1.1,1-1.469a5.584,5.584,0,0,1-.457,2.991,4.192,4.192,0,0,0-.451,2.246c.03.3.081.583.486.589s.933.032,1.006-.461c.16-1.107.569-2.147.676-3.281a15.963,15.963,0,0,0-1.065-7.781,14.129,14.129,0,0,1-.352-1.457.409.409,0,0,1,.316-.538.606.606,0,0,0,.417-.785,8.768,8.768,0,0,0-2.8-4.717c-.53-.518-1.19-.9-1.763-1.376a15.174,15.174,0,0,0-2.293-1.514,8.19,8.19,0,0,0-4.556-.84,3.039,3.039,0,0,0-2.72,1.283,3.471,3.471,0,0,1-.712,1.036,5.679,5.679,0,0,0-.184-1.362c-1.044,1.224-.8,2.649-.658,4.1-.3-.132-.52-.231-.84-.37Z" transform="translate(0 -90.183)" fill="#ffce00"/>
        <path id="Path_7" data-name="Path 7" d="M360.633,110.321a17.4,17.4,0,0,0-.676,2.556c-.455,1.407-.933,2.807-1.473,4.179A24.075,24.075,0,0,1,357,119.963a17.612,17.612,0,0,1-1.437,2.265,13.8,13.8,0,0,1-4.685,4.147,8.755,8.755,0,0,1-6.345.688,5.368,5.368,0,0,0-3.04-.069c-.4.125-.7.026-.678-.526a5.237,5.237,0,0,0-.787-2.847,4.869,4.869,0,0,1-.642-1.554c.356.461.727.915,1.063,1.39.073.1.121.2.245.194.214-.016.16-.223.14-.316a12.432,12.432,0,0,0-.468-1.84c-.469-1.216-1.026-2.4-1.518-3.608-.852-2.095-1.73-4.183-2.388-6.347a24.981,24.981,0,0,1-1.233-8.211,33.233,33.233,0,0,1,.53-4.375,22.2,22.2,0,0,1,1.469-4.527,8.01,8.01,0,0,1,.506-.874,23.582,23.582,0,0,0,.546,5.422A16.463,16.463,0,0,0,338.7,97.1a14.059,14.059,0,0,1,.878-2.975,20.336,20.336,0,0,1,2.1-4.365,9.144,9.144,0,0,1,2.787-3.066c.14-.087.32-.247.478-.144.2.127.079.368.038.536a8.438,8.438,0,0,0-.449,2.384c.02.461.194.5.534.281.747-.49,1.443-1.046,2.214-1.512a10.723,10.723,0,0,1,6.672-1.633c.47.042.981-.1,1.4.265.113.1.3.148.235.346-.059.174-.229.107-.354.109-.348.008-.7-.032-1.046.006-.777.087-.955.476-.563,1.15.633,1.089,1.3,2.163,1.884,3.279.431.822.753,1.7,1.166,2.653.227-.642.419-1.184.668-1.89,1.641,6.515,2.451,12.912,1.178,19.489l2.107-2.505v.818Zm-22-9.419a4.964,4.964,0,0,0-.4,1.6A17.617,17.617,0,0,0,340,111.76c.8,1.718,1.653,3.406,2.378,5.157a11.193,11.193,0,0,1,1.006,4.655c-.006.2-.087.421.113.621.429-.326,1-.271,1.441-.552a16.594,16.594,0,0,0,2.271-1.757,5.312,5.312,0,0,0,1.817-2.331c.125-.421.2-.86.352-1.273a16.577,16.577,0,0,0,.769-3.851c.012-.113-.075-.281.176-.334a25.406,25.406,0,0,0,.668,2.615c2.307-3.738,2.6-7.834,2.516-12.193-.767,1.079-1.425,2.008-2.091,2.934-.053.073-.148.168-.217.162-.166-.014-.117-.174-.111-.275a13.287,13.287,0,0,1,.144-1.682c.577-2.951-.475-5.507-1.876-7.984-.063-.111-.227-.231-.1-.35a.283.283,0,0,1,.411.065,17.428,17.428,0,0,1,1.872,2.74,6.7,6.7,0,0,1,.965,3.078c.508-.043.771-.413,1.125-.627.318-.192.544-.293.635.265a33.772,33.772,0,0,1,.383,7.186,18.1,18.1,0,0,1-1.141,5.529c-.291.769-.48,1.585-.832,2.323a9.056,9.056,0,0,1-.88,1.91c-.318-.283-.164-.668-.31-.994-.878,1.973-1.336,4.092-3.153,5.646.38,0,.6.063.749-.01a15.247,15.247,0,0,0,2.386-1.247,10.918,10.918,0,0,0,2.329-2.52,27.886,27.886,0,0,0,1.68-2.617,5.183,5.183,0,0,0,.82-1.747c.03-.206.01-.338-.212-.393-.834-.2-.917-.275-.828-1.127.123-1.172.3-2.34.457-3.509a30.938,30.938,0,0,0,.391-3.7,46.092,46.092,0,0,0-.48-6.553.449.449,0,0,0-.433-.445.926.926,0,0,1-.729-.723c-.277-.816-.524-1.643-.818-2.453a19.545,19.545,0,0,0-1.514-3.335,1.871,1.871,0,0,0-2.5-.917,13.917,13.917,0,0,0-2.38,1.147,6.546,6.546,0,0,0-2.121,2.2c-.35.565-.692,1.135-1.036,1.7-.073-.609-.209-1.156-.243-1.712-.008-.113,0-.243-.158-.269a.291.291,0,0,0-.293.142,10.213,10.213,0,0,0-2.433,4.556,23.015,23.015,0,0,0-.516,3.43,19.864,19.864,0,0,1-.245,2.034c-.585-1.208-.9-2.372-1.574-3.479Z" transform="translate(-267.377 -69.003)" fill="#ffce00"/>
        <path id="Path_8" data-name="Path 8" d="M107.578-.008c.536.336,1.182.2,1.759.453a23.122,23.122,0,0,1,3.839,2.481,24.721,24.721,0,0,1,2.57,2.382.468.468,0,0,0,.4.18,9.889,9.889,0,0,0-.729-3.564,6.224,6.224,0,0,1,1.287,1.32c1,1.164,2,2.319,3.044,3.44a4.351,4.351,0,0,1,.969,2.382,44.107,44.107,0,0,1,.6,6.3,45.574,45.574,0,0,1-.53,7.419,26.378,26.378,0,0,1-1.726,6.029c-.714,1.708-1.633,3.3-2.489,5.11-.188-.9-.346-1.647-.53-2.532a16.251,16.251,0,0,1-2.095,2.785c-1.115,1.208-2.307,2.344-3.459,3.517-.346.354-.664.735-1,1.1-.077.085-.162.188-.293.148-.156-.047-.091-.19-.1-.3A2.876,2.876,0,0,0,106.916,36a9.337,9.337,0,0,1-5.576-3.566A19.376,19.376,0,0,1,98.7,27.955,21.14,21.14,0,0,1,97.4,23.009c-.223-1.72-.3-3.438-.378-5.161-.008-.2,0-.4,0-.694.783,1.127,1.176,2.485,2.684,3.019-.107-.425-.2-.733-.259-1.048a27.833,27.833,0,0,1-.486-7.632,10.366,10.366,0,0,1,1.815-5.039,22.686,22.686,0,0,1,2.509-3.1,4.73,4.73,0,0,1,1.437-.986c-.785-.3-1.5-.2-2.2-.431.4-.6,1.1-.749,1.639-1.113a7.5,7.5,0,0,1,2.362-.83h1.048Zm4.776,23.2c1.095-.241,2.066-.449,3.036-.67.581-.132.644-.073.617.536a5.465,5.465,0,0,1-1.781,3.744,8.214,8.214,0,0,0-2.2,4.545c-.045.223-.148.579.091.682.2.087.348-.231.494-.409s.364-.285.5-.465a11.008,11.008,0,0,0,1.955-3.5c.121-.415.306-.83.472-1.356.2.567.35,1.006.5,1.445,1.84-6.169,2.748-12.337.6-18.671-.166.482-.3.439-.6.123-.81-.842-1.688-1.617-2.53-2.427a15.873,15.873,0,0,0-4.549-2.951,7.361,7.361,0,0,0-1.712-.69c.559.542.4.9-.1,1.127a7.754,7.754,0,0,0-2.728,2.291,12.884,12.884,0,0,0-1.953,3.094,8.508,8.508,0,0,0-.913,2.9c-.123,2.957-.247,5.942.937,8.81a3.624,3.624,0,0,1-.977-.061,4.27,4.27,0,0,0-1.079-.184c-.269,0-.385.1-.3.336.2.555.148,1.147.3,1.706.342,1.257.573,2.534,1.034,3.77a6.567,6.567,0,0,0,3.337,3.916,17.667,17.667,0,0,0,3.645,1.407c.812.182.82.229.87-.587a1.783,1.783,0,0,1,.006-.233,12.36,12.36,0,0,1,.727-3.135,10.952,10.952,0,0,1,.87-1.562A12.661,12.661,0,0,1,113,24.336l-3.872.378c.393-.5.528-1.091,1.016-1.409a.272.272,0,0,0,.077-.364c-.059-.117-.208-.073-.318-.04-.206.059-.409.2-.684.016a7.953,7.953,0,0,0,2-2.042,5.881,5.881,0,0,0,1.34-2.7,18.111,18.111,0,0,0,.036-4.7,5.468,5.468,0,0,1-.006-.82c.646.467.5,1.386,1.3,1.716.413-3.048-1.3-5.385-2.4-7.921.055.01.119,0,.158.03a8.731,8.731,0,0,1,3.234,4.446,11.5,11.5,0,0,1,.164,5.958,16.208,16.208,0,0,1-1.615,4.523c-.312.585-.692,1.127-1.087,1.791Z" transform="translate(-77.387 0.01)" fill="#ffce00"/>
        <path id="Path_9" data-name="Path 9" d="M219.91,31.684a.746.746,0,0,1,.617.395c.091.166.275.356.467.247s.121-.36.042-.526a27.008,27.008,0,0,1-.919-2.728,11.4,11.4,0,0,1-.225-3.121,10.11,10.11,0,0,1,.516-3.007,24.519,24.519,0,0,0,.87-3.554,9.358,9.358,0,0,0-1.05,1.245,32.547,32.547,0,0,1,1.283-6.047,25.387,25.387,0,0,1,2.431-5.677c-.376.19-.753.378-1.237.621a6.432,6.432,0,0,1,1.579-1.9,14.359,14.359,0,0,1,2.906-2.139,13.114,13.114,0,0,1,4.066-1.378,10.3,10.3,0,0,1,4.527.336c.7.178,1.3.575,1.991.731.1.022.186.081.18.194-.008.13-.125.13-.216.146-.21.038-.421.075-.631.1-.158.018-.35.026-.385.192a.456.456,0,0,0,.223.443,11.6,11.6,0,0,1,2.631,2.477,13.2,13.2,0,0,1,2.528,5.191,43.833,43.833,0,0,1,.767,6.025c.032.257.113.51.2.89a25.858,25.858,0,0,0,2.089-5.918,35.636,35.636,0,0,1,.034,6.652,51.634,51.634,0,0,1-1.37,6.462,5.721,5.721,0,0,0,1.4-1.755c.059-.109.107-.235.239-.188s.105.2.063.3c-.457,1.121-.791,2.289-1.35,3.37-.528,1.02-.967,2.1-1.579,3.064A26.014,26.014,0,0,1,240.16,36.1a18.061,18.061,0,0,1-2.943,2.629,5.488,5.488,0,0,0-1.23,1.255,1.269,1.269,0,0,0-.123,1.214c.121.38.024.561-.439.463-1.206-.249-2.374-.631-3.548-.988-1.542-.467-3.1-.915-4.6-1.481a11.552,11.552,0,0,1-4.345-2.718,15.88,15.88,0,0,1-2.937-4.513,2.577,2.577,0,0,1-.081-.283Zm20.776-3.064c-.344-.13-.8-.17-.864-.352-.113-.312.389-.445.5-.751a1.19,1.19,0,0,1,.212-.344,7.1,7.1,0,0,0,1.732-4.11c.04-.538-.223-.81-.769-.765a.549.549,0,0,1-.652-.439,3.749,3.749,0,0,1-.166-.733,27.549,27.549,0,0,0-.959-6.638,10.667,10.667,0,0,0-1.281-2.864,9.044,9.044,0,0,0-3.669-3.086c-.5-.239-1.036-.4-1.526-.672-.273-.15-.318-.271.012-.472-.494-.036-.917-.087-1.342-.1a6.378,6.378,0,0,0-4.689,1.74,8.013,8.013,0,0,0-1.542,2.52,27.614,27.614,0,0,0-1.742,5.242c-.077.316-.334.779-.217.909.237.259.641-.051.981-.055a.709.709,0,0,1,.16.038c-.318,1.071-.617,2.139-.953,3.2a21,21,0,0,0-1.143,4.831,9.571,9.571,0,0,0,.21,3.111,11.969,11.969,0,0,0,1.506,3.578,5.418,5.418,0,0,1,.658,1.079c-.21.053-.395.1-.583.146-.127.03-.306,0-.336.166s.136.231.257.332a12.251,12.251,0,0,0,1.755,1.083c1.012.583,2.07,1.091,3.117,1.615.445.223.909.413,1.37.607.235.1.453.1.37-.251a12.924,12.924,0,0,1-.142-2.665,5.206,5.206,0,0,1,.747-3.359c.5.7.522,1.587,1.038,2.228a13.926,13.926,0,0,1,2.522-1.595,3.576,3.576,0,0,0,2.153-3.285c-.014-.393-.172-.389-.47-.328a12.316,12.316,0,0,0-1.813.589.858.858,0,0,1-.654.024,31.789,31.789,0,0,0,2.4-2.781l-2.795,1.069a10.663,10.663,0,0,0,2.354-2.726,4.946,4.946,0,0,0,.965-2.675,10.745,10.745,0,0,0-.512-4.108,15.669,15.669,0,0,0-2.236-3.908,2.671,2.671,0,0,1,.864.526,9.862,9.862,0,0,1,2.143,2.584,4.62,4.62,0,0,1,.862,2.062c.024,1.686.376,3.426-.492,5.033-.061.111-.128.265-.006.376a.368.368,0,0,0,.389.028.873.873,0,0,1,.66-.079c-.484.807-.617,1.718-1.154,2.578a10.944,10.944,0,0,0,1.2-.182c.387-.107.4.036.318.34a19.062,19.062,0,0,1-.805,2.214,38.235,38.235,0,0,1-2.1,4.015c-.472.816-1,1.6-1.437,2.431-.208.393-.316.512-.609.1a.58.58,0,0,0-.692-.156c-.279.1-.083.36-.053.55a2.281,2.281,0,0,0,.132.5c.117.277-.14.72.182.83.253.085.447-.376.767-.441a.363.363,0,0,0,.142-.1c1.123-.941,2.354-1.745,3.457-2.714a8.736,8.736,0,0,0,2.756-4.157c.127-.435.022-.478-.36-.362a4.522,4.522,0,0,1-.8.123c-.085.01-.217.02-.233-.107a.22.22,0,0,1,.105-.18c.413-.142.465-.581.8-.858Z" transform="translate(-175.384 -3.179)" fill="#ffce00"/>
      </g>
    </g>
  </g>
</svg>
