<?xml version="1.0" standalone="no"?>
<!DOCTYPE svg PUBLIC "-//W3C//DTD SVG 20010904//EN"
 "http://www.w3.org/TR/2001/REC-SVG-20010904/DTD/svg10.dtd">
<svg version="1.0" xmlns="http://www.w3.org/2000/svg"
 width="284.000000pt" height="284.000000pt" viewBox="0 0 284.000000 284.000000"
 preserveAspectRatio="xMidYMid meet">
<metadata>
Created by potrace 1.14, written by Peter Selinger 2001-2017
</metadata>
<g transform="translate(0.000000,284.000000) scale(0.100000,-0.100000)"
fill="#000000" stroke="none">
<path d="M849 2780 c-31 -9 -81 -41 -75 -47 4 -4 30 -11 51 -12 6 -1 -3 -10
-18 -20 -40 -26 -114 -128 -132 -181 -20 -60 -24 -167 -11 -262 7 -43 9 -78 6
-78 -8 0 -44 39 -59 65 -16 27 -6 -160 13 -230 26 -98 76 -187 139 -248 28
-28 120 -77 144 -77 18 0 53 -41 53 -62 0 -10 4 -18 9 -18 12 0 201 199 202
213 0 7 6 -6 12 -27 l12 -39 43 89 c74 157 97 263 96 454 0 112 -10 207 -24
246 -10 25 -42 66 -128 163 -17 19 -22 21 -18 8 3 -10 9 -37 13 -60 l6 -42
-49 45 c-119 110 -202 146 -285 120z m141 -121 c31 -17 89 -59 127 -94 39 -35
73 -62 76 -59 2 3 11 -19 18 -48 20 -78 17 -315 -5 -398 -10 -36 -20 -75 -23
-88 -5 -20 -7 -21 -18 -6 -11 15 -13 14 -18 -12 -6 -33 -66 -126 -84 -131 -8
-3 -9 6 -3 29 13 53 21 70 66 128 38 49 49 78 45 116 -1 9 -12 9 -38 3 -62
-14 -63 -12 -33 49 61 121 71 253 25 344 -24 49 -33 60 -68 87 -20 16 -20 17
22 -74 13 -27 26 -72 28 -100 4 -50 4 -50 -14 -27 -18 22 -18 21 -19 -68 -1
-81 -4 -94 -29 -132 -16 -24 -39 -53 -52 -65 -18 -18 -20 -23 -8 -23 14 0 14
-3 -2 -26 l-17 -26 57 5 57 5 -35 -42 c-40 -49 -60 -93 -70 -153 -5 -35 -11
-43 -28 -43 -39 0 -142 56 -174 95 -29 35 -68 145 -75 210 -3 28 -1 30 30 27
30 -3 32 -1 27 20 -16 68 -21 122 -20 196 2 69 7 91 33 144 33 66 99 142 132
153 11 4 20 13 20 21 0 19 4 18 70 -17z"/>
<path d="M1675 2755 c-69 -15 -144 -58 -196 -112 -24 -24 -36 -41 -26 -37 22
8 22 3 -8 -56 -39 -77 -98 -321 -65 -270 15 24 12 -16 -5 -75 -24 -77 -25
-163 -4 -231 23 -72 23 -80 4 -64 -53 44 34 -99 90 -148 49 -43 97 -64 254
-113 112 -35 121 -35 121 -7 0 13 30 50 84 102 93 90 139 157 181 261 15 39
29 73 32 78 2 4 0 7 -4 7 -5 0 -16 -12 -25 -27 -22 -35 -22 -15 -3 57 19 69
32 280 18 280 -6 0 -14 -15 -17 -32 -4 -18 -15 -51 -26 -73 -22 -47 -26 -40
-34 65 -11 135 -47 219 -130 300 -46 45 -59 67 -31 56 8 -3 15 -2 15 3 0 5
-12 13 -27 19 -67 27 -132 33 -198 17z m95 -110 c8 -6 30 -17 47 -24 40 -16
107 -87 127 -134 21 -50 44 -179 45 -254 1 -16 7 -23 20 -23 40 0 28 -78 -22
-144 -19 -24 -23 -36 -15 -44 8 -8 7 -16 -3 -28 -13 -16 -12 -17 9 -12 15 4
22 2 22 -9 0 -22 -46 -97 -77 -124 -34 -30 -129 -99 -136 -99 -7 0 -15 49 -9
55 3 3 11 0 17 -5 9 -8 21 2 43 37 40 63 99 181 108 217 6 26 5 29 -15 23 -25
-6 -25 -6 -7 38 13 31 13 35 0 35 -12 0 -14 7 -8 33 4 17 8 58 7 89 -1 64 -28
121 -82 172 l-31 30 37 -73 c34 -65 38 -82 38 -145 0 -75 -11 -100 -64 -158
-26 -30 -23 -35 11 -17 34 18 33 0 -3 -37 -37 -40 -38 -39 39 -18 16 5 22 2
22 -9 0 -36 -28 -71 -85 -108 l-60 -38 -13 31 c-21 50 -37 20 -37 -72 0 -44
-4 -80 -8 -80 -11 0 -168 79 -185 92 -8 7 -9 15 -3 22 7 8 -1 33 -22 76 -29
57 -32 73 -31 145 2 60 10 102 32 169 28 82 29 89 12 93 -17 4 -17 8 -3 61 27
104 76 196 118 222 63 39 129 45 165 15z"/>
<path d="M2555 2250 c-57 -12 -93 -27 -148 -62 -26 -17 -51 -28 -54 -24 -4 4
-2 24 4 46 25 95 -66 12 -127 -115 -39 -80 -73 -189 -62 -199 3 -3 0 -6 -6 -6
-7 0 -12 15 -13 33 -4 121 -10 128 -39 50 -38 -102 -52 -248 -35 -364 9 -62
49 -184 100 -305 25 -59 49 -121 54 -140 10 -36 -1 -46 -18 -16 -16 26 -13 5
3 -27 8 -15 17 -41 20 -57 2 -16 5 -31 5 -34 1 -3 22 -6 49 -7 26 0 81 -2 122
-4 62 -2 84 2 124 21 82 39 159 127 216 243 44 92 97 253 87 264 -3 2 -13 -7
-23 -19 -19 -25 -52 -49 -41 -31 3 5 8 23 11 39 7 36 9 260 2 294 -3 14 -7 43
-11 65 -12 85 -28 156 -36 161 -5 3 -9 -2 -9 -10 0 -9 -3 -16 -7 -16 -12 0
-103 181 -97 191 3 5 16 9 30 9 24 0 35 19 12 21 -7 1 -26 2 -43 4 -16 1 -48
-1 -70 -5z m11 -147 c18 -19 53 -94 74 -158 7 -22 21 -47 33 -56 18 -14 20
-30 23 -145 2 -71 -1 -156 -7 -189 -18 -116 -18 -115 1 -127 14 -9 16 -17 9
-35 -14 -37 -74 -127 -107 -161 -25 -26 -100 -72 -116 -72 -3 0 8 21 24 47 16
25 34 61 40 79 7 21 16 31 24 28 15 -6 72 137 84 211 10 60 6 285 -6 297 -7 7
-16 6 -30 -1 -18 -9 -21 -7 -26 22 -6 33 -74 147 -88 147 -4 0 7 -30 25 -67
29 -61 32 -76 30 -155 0 -49 0 -88 2 -88 2 0 17 19 34 42 17 23 31 38 32 32 7
-88 -19 -242 -53 -311 l-23 -45 -11 43 c-7 24 -13 35 -14 24 -6 -67 -37 -168
-58 -191 -41 -44 -79 -74 -113 -88 l-35 -15 -3 45 c-2 54 -14 88 -80 233 -51
111 -79 213 -75 279 1 17 2 43 3 57 2 38 16 30 36 -21 9 -25 19 -44 20 -42 2
2 6 28 10 58 11 94 25 143 57 193 35 54 45 58 50 20 3 -27 4 -27 36 20 35 49
119 107 159 107 12 0 29 -8 39 -17z"/>
<path d="M320 2080 c0 -5 -11 -10 -24 -10 -13 0 -42 -6 -64 -14 -43 -16 -54
-13 -45 11 10 26 -28 0 -75 -51 -29 -31 -44 -58 -48 -86 -5 -33 -10 -39 -25
-35 -15 5 -18 -2 -24 -49 -16 -128 18 -322 71 -404 9 -13 14 -26 11 -28 -5 -5
-66 63 -82 90 -7 13 -9 -1 -8 -50 3 -85 43 -173 107 -232 34 -31 40 -42 28
-44 -13 -3 -10 -8 13 -21 32 -17 29 -20 -22 -17 -28 1 -31 -1 -26 -20 22 -83
251 -209 378 -206 l40 1 3 45 c3 60 19 95 54 125 33 28 90 36 69 11 -10 -12
-8 -13 11 -9 64 16 90 91 90 262 0 88 -5 131 -21 181 -21 66 -21 88 -1 51 17
-33 30 -16 25 34 -12 142 -169 334 -367 448 -49 29 -68 33 -68 17z m75 -170
c46 -17 149 -95 180 -136 41 -54 59 -111 41 -129 -11 -12 -10 -26 11 -97 40
-138 21 -331 -31 -315 -15 5 -15 36 0 85 7 26 14 58 14 72 l-1 25 -14 -25 -14
-25 -1 25 c-6 138 -21 197 -71 275 l-30 48 42 -7 42 -7 -18 28 c-17 26 -32 42
-81 85 -27 24 -134 70 -134 58 0 -6 4 -10 10 -10 12 0 112 -64 135 -86 14 -15
15 -18 2 -25 -8 -5 -24 -7 -36 -4 -27 5 -27 -9 1 -47 11 -17 36 -65 54 -107
31 -69 33 -83 31 -161 -2 -47 -9 -95 -16 -107 -10 -21 -9 -23 9 -23 16 0 19
-4 12 -17 -5 -10 -12 -34 -16 -53 -3 -19 -20 -53 -36 -76 -16 -22 -32 -53 -35
-67 -9 -34 -37 -35 -100 -6 -46 22 -77 49 -56 49 7 0 10 10 7 25 -4 20 -1 25
17 25 14 0 -2 11 -39 29 -34 16 -69 40 -78 52 -16 23 -16 24 11 29 l27 5 -34
27 c-19 15 -31 30 -28 33 4 4 34 7 67 7 34 0 61 4 61 9 0 5 -4 9 -10 9 -5 0
-36 26 -68 58 -43 41 -63 71 -76 108 -21 63 -27 230 -9 227 8 -2 12 12 11 41
0 24 4 52 10 62 11 18 11 18 12 -1 1 -19 2 -19 20 3 10 12 31 29 45 36 30 16
114 14 160 -4z"/>
<path d="M1205 1618 c-33 -5 -64 -15 -70 -22 -5 -7 -25 -18 -43 -24 -76 -26
-162 -107 -198 -186 -13 -30 -33 -96 -44 -147 -21 -97 -49 -178 -49 -146 -1
13 -12 3 -38 -30 -20 -26 -40 -50 -44 -53 -4 -3 -25 -19 -45 -35 -125 -99
-160 -138 -196 -214 -32 -67 -31 -185 1 -269 23 -62 100 -162 124 -162 7 0 39
-14 71 -30 32 -17 61 -30 63 -30 2 0 -4 11 -13 25 l-17 26 28 -11 c74 -28 151
-32 85 -4 -16 7 -30 18 -30 23 0 10 45 -6 114 -41 22 -11 72 -48 113 -82 88
-74 183 -132 238 -147 68 -19 183 -11 236 17 35 17 37 26 7 19 -41 -8 -88 -13
-88 -9 0 3 28 18 63 34 34 16 98 52 141 80 93 61 225 134 231 128 3 -2 0 -20
-5 -39 -6 -18 -10 -48 -10 -66 l0 -32 35 34 c46 43 106 71 186 85 134 25 201
63 215 123 4 17 7 60 6 95 -1 44 2 61 10 56 7 -5 9 1 4 20 -6 26 7 36 20 15
16 -26 20 16 8 77 -18 82 -60 168 -135 273 -33 46 -58 86 -55 88 2 2 12 6 23
8 10 2 20 4 22 4 2 1 -8 10 -23 22 -29 23 -58 73 -82 146 -34 101 -81 188
-121 224 -47 42 -125 69 -202 69 -30 0 -51 4 -51 11 0 8 -33 10 -107 6 -112
-4 -174 3 -140 18 9 4 17 11 17 15 0 9 -77 30 -135 36 -22 3 -44 6 -50 7 -5 2
-37 -1 -70 -5z m121 -166 c6 -4 13 -15 17 -25 12 -32 74 -50 177 -49 55 0 97
-4 101 -10 5 -7 18 -6 44 2 20 7 63 10 94 8 63 -4 99 -26 137 -81 23 -35 65
-163 69 -212 1 -16 3 -36 3 -42 1 -7 26 -41 55 -76 69 -80 103 -132 121 -183
15 -44 7 -74 -21 -74 -14 0 -14 -2 1 -19 15 -16 15 -19 2 -24 -12 -5 -13 -13
-5 -39 23 -83 3 -155 -53 -181 -47 -22 -178 -43 -178 -28 0 4 11 22 25 41 14
19 25 36 25 38 0 2 -22 1 -48 -2 -57 -7 -123 -29 -169 -56 -35 -21 -37 -18
-34 33 4 83 50 123 148 131 56 4 74 -1 67 -19 -9 -22 18 -30 33 -10 20 29 16
68 -13 110 -16 24 -20 35 -11 32 28 -11 26 6 -4 34 -37 34 -28 36 41 9 69 -27
73 -26 51 19 -21 41 -39 54 -206 149 -106 61 -145 102 -145 153 0 23 5 29 22
29 l21 0 -20 23 c-33 36 -43 63 -37 99 4 24 3 29 -5 18 -9 -14 -16 -58 -26
-156 -6 -68 56 -154 152 -211 41 -24 49 -43 17 -43 -19 0 -18 -7 6 -37 26 -33
25 -43 -2 -43 -20 0 -20 -1 -3 -20 10 -11 26 -22 36 -25 35 -11 20 -21 -51
-33 -129 -22 -247 -105 -269 -189 -15 -54 -7 -82 35 -131 l34 -40 -56 -33
c-31 -17 -86 -42 -123 -55 -36 -12 -58 -23 -48 -23 9 -1 17 -5 17 -9 0 -5 -21
-8 -46 -6 -50 4 -54 6 -234 155 -75 62 -156 109 -258 149 -27 10 -35 11 -41 1
-5 -8 -18 -10 -34 -5 -18 4 -27 2 -27 -6 0 -20 -22 1 -36 37 -19 45 -20 150
-1 196 18 42 94 147 106 147 5 0 19 11 32 24 16 17 27 22 35 15 24 -19 54 48
119 266 54 177 101 231 227 257 32 7 58 16 58 20 0 10 61 10 76 0z"/>
</g>
</svg>
