<svg xmlns="http://www.w3.org/2000/svg" width="50.28" height="48" viewBox="0 0 50.28 48">
  <path id="thumb_up_FILL0_wght400_GRAD0_opsz48" d="M117.22-872H90.58v-30.72L107.26-920l2.34,1.86a1.8,1.8,0,0,1,.54.84,4.21,4.21,0,0,1,.18,1.32v.6l-2.7,12.66h17.94a3.454,3.454,0,0,1,2.52,1.08,3.454,3.454,0,0,1,1.08,2.52v4.91a4.481,4.481,0,0,0,.09.88,1.442,1.442,0,0,1-.09.87l-7.56,17.4a5.052,5.052,0,0,1-1.776,2.167A4.4,4.4,0,0,1,117.22-872Zm-23.04-3.6H118l7.56-17.94v-5.58H103.18l3.18-14.94L94.18-901.22Zm0-25.62v0Zm-3.6-1.5v3.6H82.6v23.52h7.98v3.6H79v-30.72Z" transform="translate(-79 920)" fill="#ffce00"/>
</svg>
