<svg xmlns="http://www.w3.org/2000/svg" width="59.737" height="57.022" viewBox="0 0 59.737 57.022">
  <path id="verified_FILL0_wght400_GRAD0_opsz48" d="M60.772-842.978,55.613-851.8l-10.25-2.1,1.154-9.979L40-871.489l6.517-7.535L45.363-889l10.25-2.1L60.772-900l9.1,4.209,9.1-4.209,5.227,8.893L94.375-889l-1.154,9.979,6.517,7.535-6.517,7.6,1.154,9.979-10.183,2.1-5.227,8.825-9.1-4.209Zm1.833-5.363,7.264-3.055,7.467,3.055,4.548-6.788,7.942-2.036-.815-8.078,5.5-6.245-5.5-6.381.815-8.078-7.942-1.9L77.2-894.637l-7.331,3.055L62.4-894.637l-4.548,6.788-7.942,1.9.815,8.078-5.5,6.381,5.5,6.245-.815,8.214,7.942,1.9ZM69.869-871.489ZM66.95-862.46l15.41-15.274L79.3-880.517,66.95-868.3l-6.449-6.72-3.123,3.055Z" transform="translate(-40 900)" fill="#ffce00"/>
</svg>
